<svg width="19" height="38" viewBox="0 0 19 38" fill="none" xmlns="http://www.w3.org/2000/svg">
<path d="M16.5 8.99999V28.1667C16.5 31.85 13.5167 34.8333 9.83335 34.8333C6.15002 34.8333 3.16669 31.85 3.16669 28.1667V7.33332C3.16669 5.03332 5.03335 3.16666 7.33335 3.16666C9.63335 3.16666 11.5 5.03332 11.5 7.33332V24.8333C11.5 25.75 10.75 26.5 9.83335 26.5C8.91669 26.5 8.16669 25.75 8.16669 24.8333V8.99999H5.66669V24.8333C5.66669 27.1333 7.53335 29 9.83335 29C12.1334 29 14 27.1333 14 24.8333V7.33332C14 3.64999 11.0167 0.666656 7.33335 0.666656C3.65002 0.666656 0.666687 3.64999 0.666687 7.33332V28.1667C0.666687 33.2333 4.76669 37.3333 9.83335 37.3333C14.9 37.3333 19 33.2333 19 28.1667V8.99999H16.5Z" fill="#F0F0F0"/>
</svg>
