<svg width="34" height="34" viewBox="0 0 34 34" fill="none" xmlns="http://www.w3.org/2000/svg">
<path d="M16.9833 0.333344C7.78331 0.333344 0.333313 7.80001 0.333313 17C0.333313 26.2 7.78331 33.6667 16.9833 33.6667C26.2 33.6667 33.6666 26.2 33.6666 17C33.6666 7.80001 26.2 0.333344 16.9833 0.333344ZM11.1666 10.3333C12.55 10.3333 13.6666 11.45 13.6666 12.8333C13.6666 14.2167 12.55 15.3333 11.1666 15.3333C9.78331 15.3333 8.66665 14.2167 8.66665 12.8333C8.66665 11.45 9.78331 10.3333 11.1666 10.3333ZM17 27C13.2 27 9.96665 24.2333 8.66665 20.3333H25.3333C24.0333 24.2333 20.8 27 17 27ZM22.8333 15.3333C21.45 15.3333 20.3333 14.2167 20.3333 12.8333C20.3333 11.45 21.45 10.3333 22.8333 10.3333C24.2166 10.3333 25.3333 11.45 25.3333 12.8333C25.3333 14.2167 24.2166 15.3333 22.8333 15.3333Z" fill="#F0F0F0"/>
</svg>
