<svg width="297" height="56" viewBox="0 0 297 56" fill="none" xmlns="http://www.w3.org/2000/svg">
<path fill-rule="evenodd" clip-rule="evenodd" d="M17.5 1H2L17.5 13.7647V39C17.5 47.8366 24.6634 55 33.5 55H280.5C289.337 55 296.5 47.8366 296.5 39V17C296.5 8.16344 289.337 1 280.5 1H19H17.5Z" fill="#202C33"/>
<path d="M2 1V0.5H0.606332L1.68215 1.38597L2 1ZM17.5 13.7647H18V13.5287L17.8179 13.3787L17.5 13.7647ZM2 1.5H17.5V0.5H2V1.5ZM17.8179 13.3787L2.31785 0.614035L1.68215 1.38597L17.1821 14.1507L17.8179 13.3787ZM18 39V13.7647H17V39H18ZM33.5 54.5C24.9396 54.5 18 47.5604 18 39H17C17 48.1127 24.3873 55.5 33.5 55.5V54.5ZM280.5 54.5H33.5V55.5H280.5V54.5ZM296 39C296 47.5604 289.06 54.5 280.5 54.5V55.5C289.613 55.5 297 48.1127 297 39H296ZM296 17V39H297V17H296ZM280.5 1.5C289.06 1.5 296 8.43959 296 17H297C297 7.8873 289.613 0.5 280.5 0.5V1.5ZM19 1.5H280.5V0.5H19V1.5ZM17.5 1.5H19V0.5H17.5V1.5Z" fill="#202C33"/>
</svg>
